<?xml version="1.0" encoding="utf-8"?>
<!-- Generator: Adobe Illustrator 21.1.0, SVG Export Plug-In . SVG Version: 6.00 Build 0)  -->
<svg version="1.1" id="Layer_1" xmlns="http://www.w3.org/2000/svg" xmlns:xlink="http://www.w3.org/1999/xlink" x="0px" y="0px"
	 viewBox="0 0 100 100" style="enable-background:new 0 0 100 100;" xml:space="preserve">
<style type="text/css">
	.st0{fill:#444445;}
</style>
<g>
	<g>
		<path class="st0" d="M0.5,58.4c21,5.1,43.3,8.1,63.9-0.5c8.7-3.6,17.4-9,23.7-16.2c2.6-2.9,5.3-6.6,6-10.5
			c0.3-1.5-0.5-2.7-0.4-4.1c0.1-1.4,2.7-8.8,4.1-8.9c-0.8-0.6-1.6-1.2-2.4-1.8c1.2,3.4,1.8,6.6,1.8,10.1c0,3.2,5,3.2,5,0
			c0-4-0.6-7.7-2-11.5c-0.3-1-1.3-1.9-2.4-1.8c-6.3,0.4-9,10.5-8.9,15.5c0.2,9.8-13.3,18-20.9,22.1c-20.8,11-44.1,8.2-66.1,2.9
			C-1.3,52.8-2.6,57.6,0.5,58.4L0.5,58.4z"/>
	</g>
</g>
<g>
	<g>
		<path class="st0" d="M-1.5,54.7c-4.4,4.4,0.8,7.9,4,10.6c5.6,4.6,9.9,9.8,16.3,13.3c11.7,6.5,25.4,8.8,38.6,6.4
			c13.3-2.4,25.9-9.6,34.8-19.7c4.6-5.2,8.6-11.3,10.3-18.1c1.8-7.2,0.4-14.1-1.6-21.1c-0.8-3.1-5.7-1.8-4.8,1.3
			c1.7,6.1,3.2,12.1,1.6,18.4c-1.5,6-5,11.3-9,15.9c-7.4,8.4-17.3,14.6-28.1,17.4C50,82,38.8,81.4,28.5,77.6
			c-5.4-2-10.5-4.9-14.9-8.6C12.5,68.1,2.2,58.1,2,58.3C4.3,56,0.8,52.5-1.5,54.7L-1.5,54.7z"/>
	</g>
</g>
<g>
	<g>
		<path class="st0" d="M94.5,29.7c0.9-1.4,2.5-1.8,4.1-1.6c1.3,0.1,2.5-1.3,2.5-2.5c0-1.5-1.2-2.4-2.5-2.5c-3.4-0.4-6.5,1.4-8.4,4.1
			c-0.8,1.1-0.2,2.8,0.9,3.4C92.3,31.4,93.7,30.8,94.5,29.7L94.5,29.7z"/>
	</g>
</g>
</svg>
