<?xml version="1.0" encoding="utf-8"?>
<!-- Generator: Adobe Illustrator 21.1.0, SVG Export Plug-In . SVG Version: 6.00 Build 0)  -->
<svg version="1.1" id="Layer_1" xmlns="http://www.w3.org/2000/svg" xmlns:xlink="http://www.w3.org/1999/xlink" x="0px" y="0px"
	 viewBox="0 0 100 100" style="enable-background:new 0 0 100 100;" xml:space="preserve">
<style type="text/css">
	.st0{fill:#444445;}
</style>
<g>
	<g>
		<path class="st0" d="M15.2,44.8c-4.4-18.6,22.9-22.1,35.2-22.1c3.2,0,3.2-5,0-5c-16,0-45.4,5.9-40,28.4
			C11.2,49.3,16,47.9,15.2,44.8L15.2,44.8z"/>
	</g>
</g>
<g>
	<g>
		<path class="st0" d="M91.2,46.1c5.3-22.5-24-28.4-40-28.4c-3.2,0-3.2,5,0,5c12.3,0,39.6,3.5,35.2,22.1
			C85.7,47.9,90.5,49.3,91.2,46.1L91.2,46.1z"/>
	</g>
</g>
<g>
	<g>
		<path class="st0" d="M13.6,48.9c24.8,0,49.6,0,74.4,0c3.2,0,3.2-5,0-5c-24.8,0-49.6,0-74.4,0C10.4,43.9,10.4,48.9,13.6,48.9
			L13.6,48.9z"/>
	</g>
</g>
<g>
	<g>
		<path class="st0" d="M10.2,44.6c-3,1.9-6.2,5.9-4.7,9.7c1.6,4.1,7.1,3.3,10.5,3.2c6.3-0.3,11.6,2.2,17.9,0.8
			c1.9-0.4,3.8-1.1,5.7-1.1c2,0.1,3.8,0.9,5.7,1.3c2.3,0.5,4.5,0.5,6.8-0.1c3.9-1,6.7-1.2,10.6-0.3c2.6,0.6,4.9,0.9,7.6,0.5
			c2.8-0.4,5.4-1.4,8.2-1.9c3.5-0.6,6.3,1,9.6,1.3c3.3,0.3,7-1.1,7.8-4.6c1-4.1-2.9-7.8-6.3-9.5c-2.9-1.4-5.4,2.9-2.5,4.3
			c2.5,1.2,4.2,4.4-0.3,4.4c-1.4,0-2.9-0.9-4.3-1c-2.9-0.3-5.7,0.3-8.5,1c-4.6,1.2-7.8,1-12.5-0.1c-3.1-0.7-5.5-0.6-8.5,0.2
			C49,54,46,53.2,42,52.5c-3.4-0.6-6,0.3-9.3,1c-4.1,0.8-7.1-0.5-11-1c-1.9-0.2-3.7-0.1-5.6,0c-2.3,0.1-8.5-0.4-3.3-3.6
			C15.5,47.2,13,42.9,10.2,44.6L10.2,44.6z"/>
	</g>
</g>
<g>
	<g>
		<path class="st0" d="M10.7,56.5c0.2,7,3.1,11.9,10.7,11.1c5.2-0.6,9.5-0.1,14.7,0.5c4.8,0.6,9.1,0,13.9-0.5
			c4.8-0.5,9.4,0.4,14.2,0.5c4.7,0.1,9.2-1.4,13.9-0.8c7.9,1,10.8-3.9,11.2-11.3c0.2-3.2-4.8-3.2-5,0c-0.1,2.8-0.1,5-3,5.9
			c-1.9,0.6-2.6,0.3-4.4,0.2c-2.8-0.3-5.4,0.4-8.1,0.8C62.6,63.7,56.3,62,50,62.6c-6.5,0.6-12,0.7-18.4-0.2c-2.7-0.4-5.3-0.5-8-0.2
			c-1.2,0.1-3.1,0.8-4.3,0.6c-3-0.7-3.4-3.8-3.5-6.3C15.6,53.3,10.6,53.3,10.7,56.5L10.7,56.5z"/>
	</g>
</g>
<g>
	<g>
		<path class="st0" d="M11.1,61.3c-2.8,8.3-0.9,16.2,8.2,18.9c9.7,2.9,21.3,2.5,31.3,2.2c3.2-0.1,3.2-5.1,0-5
			c-7.3,0.2-14.7,0-22-0.7c-3.3-0.3-7-0.5-10-2c-5-2.5-4.3-7.5-2.7-12C17,59.6,12.1,58.2,11.1,61.3L11.1,61.3z"/>
	</g>
</g>
<g>
	<g>
		<path class="st0" d="M84.1,62.6c1.4,4.3,2.3,9-2.2,11.7c-3,1.8-7.2,2-10.6,2.3c-7.3,0.7-14.6,0.9-22,0.7c-3.2-0.1-3.2,4.9,0,5
			c10,0.3,21.6,0.7,31.3-2.2c9.1-2.7,11-10.6,8.2-18.9C87.9,58.3,83.1,59.6,84.1,62.6L84.1,62.6z"/>
	</g>
</g>
<g>
	<g>
		<path class="st0" d="M34.5,31.9c0.9-0.7,1.7-1.5,2.6-2.2c1-0.8,0.9-2.7,0-3.5c-1.1-1-2.5-0.9-3.5,0c-0.9,0.7-1.7,1.5-2.6,2.2
			c-1,0.8-0.9,2.7,0,3.5C32,32.9,33.4,32.8,34.5,31.9L34.5,31.9z"/>
	</g>
</g>
<g>
	<g>
		<path class="st0" d="M42.1,29.1c0.5,0.6,1,1.1,1.5,1.7c0.9,1,2.7,1,3.5,0c1-1,0.9-2.5,0-3.5c-0.5-0.6-1-1.1-1.5-1.7
			c-0.9-1-2.7-1-3.5,0C41.1,26.7,41.1,28.1,42.1,29.1L42.1,29.1z"/>
	</g>
</g>
<g>
	<g>
		<path class="st0" d="M56.1,30c0.4-0.6,0.7-1.2,1.1-1.7c0.7-1.1,0.3-2.8-0.9-3.4c-1.2-0.7-2.7-0.3-3.4,0.9
			c-0.4,0.6-0.7,1.2-1.1,1.7c-0.7,1.1-0.3,2.8,0.9,3.4C54,31.5,55.4,31.2,56.1,30L56.1,30z"/>
	</g>
</g>
<g>
	<g>
		<path class="st0" d="M62.3,29.5c0.7,0.6,1.3,1.2,2,1.7c1,0.9,2.6,1,3.5,0c0.9-0.9,1.1-2.6,0-3.5c-0.7-0.6-1.3-1.2-2-1.7
			c-1-0.9-2.6-1-3.5,0C61.5,26.9,61.3,28.6,62.3,29.5L62.3,29.5z"/>
	</g>
</g>
</svg>
