<?xml version="1.0" encoding="utf-8"?>
<!-- Generator: Adobe Illustrator 21.1.0, SVG Export Plug-In . SVG Version: 6.00 Build 0)  -->
<svg version="1.1" id="Layer_1" xmlns="http://www.w3.org/2000/svg" xmlns:xlink="http://www.w3.org/1999/xlink" x="0px" y="0px"
	 viewBox="0 0 100 100" style="enable-background:new 0 0 100 100;" xml:space="preserve">
<style type="text/css">
	.st0{fill:#444445;}
</style>
<g>
	<g>
		<path class="st0" d="M24.1,59.4c17.2-12.6,39.1-6.5,52.9,8.1c2.2,2.3,5.7-1.2,3.5-3.5c-15.1-16.1-40-22.8-58.9-8.9
			C19,57,21.5,61.3,24.1,59.4L24.1,59.4z"/>
	</g>
</g>
<g>
	<g>
		<path class="st0" d="M75.6,71.4C59,84.2,36.8,78.1,23.1,64.2c-2.3-2.3-5.8,1.2-3.5,3.5c15.9,16,40.8,21.7,59.6,7.1
			C81.7,72.9,78.2,69.4,75.6,71.4L75.6,71.4z"/>
	</g>
</g>
<g>
	<g>
		<path class="st0" d="M20.6,56c-1.5,3.1-2.2,6.4-1.9,9.9c0.3,3.2,5.3,3.2,5,0c-0.2-2.6,0.1-5,1.2-7.4C26.3,55.6,22,53,20.6,56
			L20.6,56z"/>
	</g>
</g>
<g>
	<g>
		<path class="st0" d="M76,67c0.3,1.5,0.1,3.2-0.5,4.6c-0.6,1.2-0.4,2.7,0.9,3.4c1.1,0.6,2.9,0.3,3.4-0.9c1.2-2.7,1.6-5.5,1-8.5
			c-0.3-1.3-1.8-2.1-3.1-1.7C76.4,64.3,75.7,65.7,76,67L76,67z"/>
	</g>
</g>
<g>
	<g>
		<path class="st0" d="M81.5,67.8c5.8-2.7,11.5-5.5,17.3-8.2c2.9-1.4,0.4-5.7-2.5-4.3C90.5,58,84.7,60.7,79,63.4
			C76.1,64.8,78.6,69.1,81.5,67.8L81.5,67.8z"/>
	</g>
</g>
<g>
	<g>
		<path class="st0" d="M95.5,56.8c-1.4,3-2.7,5.9-4.1,8.9c-1.3,2.9,3,5.4,4.3,2.5c1.4-3,2.7-5.9,4.1-8.9
			C101.1,56.4,96.8,53.9,95.5,56.8L95.5,56.8z"/>
	</g>
</g>
<g>
	<g>
		<path class="st0" d="M78.9,75.7c5.5,3.2,11,6.5,16.5,9.7c2.8,1.6,5.3-2.7,2.5-4.3c-5.5-3.2-11-6.5-16.5-9.7
			C78.7,69.7,76.2,74.1,78.9,75.7L78.9,75.7z"/>
	</g>
</g>
<g>
	<g>
		<path class="st0" d="M99.3,81.9c-1.1-3.1-2.2-6.2-3.3-9.2c-1.1-3-5.9-1.7-4.8,1.3c1.1,3.1,2.2,6.2,3.3,9.2
			C95.5,86.2,100.4,84.9,99.3,81.9L99.3,81.9z"/>
	</g>
</g>
<g>
	<g>
		<path class="st0" d="M92.8,69.3c1.7,0.8,3.3,1.8,4.8,2.9c0-1.4,0-2.9,0-4.3c-1.8,0.9-3.6,1.8-5.4,2.7c-1.2,0.6-1.5,2.3-0.9,3.4
			c0.7,1.2,2.2,1.5,3.4,0.9c1.8-0.9,3.6-1.8,5.4-2.7c1.8-0.9,1.4-3.3,0-4.3c-1.5-1.1-3.1-2.1-4.8-2.9c-1.2-0.6-2.7-0.3-3.4,0.9
			C91.2,67,91.5,68.7,92.8,69.3L92.8,69.3z"/>
	</g>
</g>
<g>
	<g>
		<path class="st0" d="M21.8,54.3c-5.5-3.2-11.1-6.3-16.6-9.5c-2.8-1.6-5.3,2.7-2.5,4.3c5.5,3.2,11.1,6.3,16.6,9.5
			C22.1,60.2,24.6,55.9,21.8,54.3L21.8,54.3z"/>
	</g>
</g>
<g>
	<g>
		<path class="st0" d="M1.4,48.3c1.1,3.1,2.3,6.1,3.4,9.2c1.1,3,5.9,1.7,4.8-1.3C8.5,53.1,7.3,50,6.2,47C5.1,44,0.3,45.3,1.4,48.3
			L1.4,48.3z"/>
	</g>
</g>
<g>
	<g>
		<path class="st0" d="M18.7,62.2C13,65,7.3,67.8,1.5,70.6c-2.9,1.4-0.4,5.7,2.5,4.3c5.7-2.8,11.5-5.6,17.2-8.4
			C24.2,65.1,21.6,60.8,18.7,62.2L18.7,62.2z"/>
	</g>
</g>
<g>
	<g>
		<path class="st0" d="M4.8,73.3c1.3-3,2.7-6,4-9c1.3-2.9-3-5.5-4.3-2.5c-1.3,3-2.7,6-4,9C-0.8,73.7,3.5,76.3,4.8,73.3L4.8,73.3z"/>
	</g>
</g>
<g>
	<g>
		<path class="st0" d="M6.1,54.5c-2,0.8-3.8,1.7-5.6,2.8c-1.6,1-1.6,3.3,0,4.3c1.7,1,3.4,2.1,5.2,3.1c2.8,1.7,5.3-2.7,2.5-4.3
			c-1.7-1-3.4-2.1-5.2-3.1c0,1.4,0,2.9,0,4.3c1.4-0.9,2.9-1.6,4.5-2.3c1.3-0.5,2.1-1.7,1.7-3.1C8.8,55,7.3,54,6.1,54.5L6.1,54.5z"/>
	</g>
</g>
<g>
	<g>
		<path class="st0" d="M20,55c9.5-12.2,24-18.9,39.5-18c3.2,0.2,3.2-4.8,0-5c-16.6-1-32.8,6.3-43,19.4C14.5,54,18,57.6,20,55L20,55z
			"/>
	</g>
</g>
<g>
	<g>
		<path class="st0" d="M58.3,36.8c1.8,1.1,3,2.7,3.5,4.7c0.8,3.1,5.6,1.8,4.8-1.3c-0.9-3.2-2.9-6-5.8-7.7
			C58.1,30.8,55.6,35.1,58.3,36.8L58.3,36.8z"/>
	</g>
</g>
<g>
	<g>
		<path class="st0" d="M62,42.2c-0.9,2.4-2.2,4.5-4,6.3c-2.2,2.3,1.3,5.8,3.5,3.5c2.4-2.5,4.1-5.3,5.3-8.5
			C67.9,40.5,63.1,39.2,62,42.2L62,42.2z"/>
	</g>
</g>
<g>
	<g>
		<path class="st0" d="M63.7,34.7c3.5-5.3,7-10.7,10.4-16c1.8-2.7-2.6-5.2-4.3-2.5c-3.5,5.3-7,10.7-10.4,16
			C57.7,34.9,62,37.4,63.7,34.7L63.7,34.7z"/>
	</g>
</g>
<g>
	<g>
		<path class="st0" d="M70,17.9c0.4,3.2,0.8,6.5,1.2,9.7c0.2,1.4,1,2.5,2.5,2.5c1.2,0,2.7-1.2,2.5-2.5c-0.4-3.2-0.8-6.5-1.2-9.7
			c-0.2-1.4-1-2.5-2.5-2.5C71.2,15.4,69.8,16.6,70,17.9L70,17.9z"/>
	</g>
</g>
<g>
	<g>
		<path class="st0" d="M65.7,42.7c6.4-0.1,12.8-0.3,19.1-0.4c3.2-0.1,3.2-5.1,0-5c-6.4,0.1-12.8,0.3-19.1,0.4
			C62.5,37.8,62.5,42.8,65.7,42.7L65.7,42.7z"/>
	</g>
</g>
<g>
	<g>
		<path class="st0" d="M86.4,37.4c-2.5-2-5.1-4.1-7.6-6.1c-1.1-0.8-2.5-1-3.5,0c-0.9,0.9-1.1,2.7,0,3.5c2.5,2,5.1,4.1,7.6,6.1
			c1.1,0.8,2.5,1,3.5,0C87.3,40,87.5,38.2,86.4,37.4L86.4,37.4z"/>
	</g>
</g>
<g>
	<g>
		<path class="st0" d="M74.1,30c1.9-0.2,3.8-0.2,5.6-0.1c-0.7-1.3-1.4-2.5-2.2-3.8c-1.1,1.7-2.1,3.4-3.2,5.1
			c-1.7,2.7,2.6,5.3,4.3,2.5c1.1-1.7,2.1-3.4,3.2-5.1c1.1-1.7-0.3-3.6-2.2-3.8c-1.9-0.1-3.8-0.1-5.6,0.1c-1.3,0.1-2.5,1.1-2.5,2.5
			C71.6,28.8,72.7,30.1,74.1,30L74.1,30z"/>
	</g>
</g>
<g>
	<g>
		<path class="st0" d="M28.9,51.6c-4.1,9.3,9.8,15.5,9.1,24.2c-0.3,3.2,4.7,3.2,5,0c0.3-3.8-1.5-7-3.6-10.1
			c-1.6-2.4-7.6-8.6-6.2-11.7C34.5,51.2,30.2,48.7,28.9,51.6L28.9,51.6z"/>
	</g>
</g>
<g>
	<g>
		<path class="st0" d="M36.9,50.9c-0.8,10.8,14.3,17.8,12.2,28.5c-0.6,3.1,4.2,4.5,4.8,1.3c0.9-4.7-0.3-8.8-2.8-12.8
			c-2.9-4.7-9.7-11.1-9.3-17.1C42.1,47.7,37.1,47.7,36.9,50.9L36.9,50.9z"/>
	</g>
</g>
<g>
	<g>
		<path class="st0" d="M46.2,52.3c1.6,10.4,13.4,15.9,14,26.9c0.2,3.2,5.2,3.2,5,0c-0.3-5-2.2-9.4-5-13.5c-3.2-4.6-8.3-9-9.2-14.7
			C50.6,47.8,45.8,49.1,46.2,52.3L46.2,52.3z"/>
	</g>
</g>
<g>
	<g>
		<path class="st0" d="M56.4,55.4c3.8,7,11.6,12.5,12.7,20.8c0.4,3.2,5.4,3.2,5,0c-1.2-9.7-8.9-15.2-13.3-23.4
			C59.2,50,54.9,52.5,56.4,55.4L56.4,55.4z"/>
	</g>
</g>
<g>
	<g>
		<path class="st0" d="M23.6,50.3c2.2,1.1,4.5,2.1,6.9,2.9c1.3,0.4,2.7-0.5,3.1-1.7c0.4-1.4-0.5-2.6-1.7-3.1
			c-1.9-0.7-3.8-1.5-5.7-2.4C23.2,44.6,20.7,48.9,23.6,50.3L23.6,50.3z"/>
	</g>
</g>
<g>
	<g>
		<path class="st0" d="M31.2,44.9c4.5,1.8,8.9,4,13.1,6.4c2.8,1.6,5.3-2.7,2.5-4.3c-4.6-2.7-9.4-5-14.3-6.9
			C29.5,38.9,28.2,43.7,31.2,44.9L31.2,44.9z"/>
	</g>
</g>
<g>
	<g>
		<path class="st0" d="M39.7,39.9c6.8,2.2,13.5,5.2,17.9,11.1c1.9,2.5,6.3,0,4.3-2.5c-5.3-7-12.8-10.7-20.9-13.4
			C38,34,36.7,38.9,39.7,39.9L39.7,39.9z"/>
	</g>
</g>
</svg>
