<?xml version="1.0" encoding="utf-8"?>
<!-- Generator: Adobe Illustrator 21.1.0, SVG Export Plug-In . SVG Version: 6.00 Build 0)  -->
<svg version="1.1" id="Layer_1" xmlns="http://www.w3.org/2000/svg" xmlns:xlink="http://www.w3.org/1999/xlink" x="0px" y="0px"
	 viewBox="0 0 100 100" style="enable-background:new 0 0 100 100;" xml:space="preserve">
<style type="text/css">
	.st0{fill:#444445;}
</style>
<g>
	<g>
		<path class="st0" d="M12.5,60.5C24.8,48.3,37.2,36,49.5,23.8c2.3-2.3-1.3-5.8-3.5-3.5C33.6,32.5,21.3,44.8,9,57
			C6.7,59.3,10.2,62.8,12.5,60.5L12.5,60.5z"/>
	</g>
</g>
<g>
	<g>
		<path class="st0" d="M46.9,24.1c3.1,3.4,8.4,5.9,13,4.1c4-1.5,5.6-6,5.8-9.9c0.2-3.2-4.8-3.2-5,0c-0.1,1.9-0.7,4.7-2.8,5.4
			c-2.7,0.9-5.8-1.2-7.5-3.1C48.2,18.2,44.7,21.8,46.9,24.1L46.9,24.1z"/>
	</g>
</g>
<g>
	<g>
		<path class="st0" d="M61.9,18.6c3.3,4.8,10.2,6.4,15,2.9c2.6-1.9,0.1-6.2-2.5-4.3c-2.5,1.8-6.3,1.6-8.2-1.1
			C64.4,13.4,60.1,15.9,61.9,18.6L61.9,18.6z"/>
	</g>
</g>
<g>
	<g>
		<path class="st0" d="M39.5,83.2C56.7,66.1,73.8,49,91,32c2.3-2.3-1.3-5.8-3.5-3.5C70.3,45.5,53.2,62.6,36,79.7
			C33.7,81.9,37.2,85.5,39.5,83.2L39.5,83.2z"/>
	</g>
</g>
<g>
	<g>
		<path class="st0" d="M75.4,20.6c3.9,3.4,7.7,6.9,11.3,10.7c2.3,2.3,5.8-1.2,3.5-3.5c-3.6-3.7-7.4-7.3-11.3-10.7
			C76.5,15,73,18.5,75.4,20.6L75.4,20.6z"/>
	</g>
</g>
<g>
	<g>
		<path class="st0" d="M8.9,60.6c8.6,8,17.2,16,25.9,24c2.4,2.2,5.9-1.3,3.5-3.5c-8.6-8-17.2-16-25.9-24C10,54.9,6.5,58.5,8.9,60.6
			L8.9,60.6z"/>
	</g>
</g>
<g>
	<g>
		<path class="st0" d="M30.4,68.4C42.7,56.1,55,43.9,67.3,31.6c2.3-2.3-1.3-5.8-3.5-3.5C51.5,40.3,39.1,52.6,26.8,64.8
			C24.5,67.1,28.1,70.6,30.4,68.4L30.4,68.4z"/>
	</g>
</g>
<g>
	<g>
		<path class="st0" d="M27.6,50.9c2.7,2.4,5.2,4.9,7.6,7.5c2.2,2.4,5.7-1.2,3.5-3.5c-2.4-2.6-5-5.1-7.6-7.5
			C28.7,45.2,25.2,48.8,27.6,50.9L27.6,50.9z"/>
	</g>
</g>
<g>
	<g>
		<path class="st0" d="M40.2,38.3c2.7,2.4,5.2,4.9,7.6,7.5c2.2,2.4,5.7-1.2,3.5-3.5c-2.4-2.6-5-5.1-7.6-7.5
			C41.4,32.6,37.9,36.1,40.2,38.3L40.2,38.3z"/>
	</g>
</g>
<g>
	<g>
		<path class="st0" d="M35.7,59.1c2.7,2.4,5.2,4.9,7.6,7.5c2.2,2.4,5.7-1.2,3.5-3.5c-2.4-2.6-5-5.1-7.6-7.5
			C36.9,53.4,33.4,56.9,35.7,59.1L35.7,59.1z"/>
	</g>
</g>
<g>
	<g>
		<path class="st0" d="M47.7,45.9c2.7,2.4,5.2,4.9,7.6,7.5c2.2,2.4,5.7-1.2,3.5-3.5c-2.4-2.6-5-5.1-7.6-7.5
			C48.9,40.2,45.4,43.8,47.7,45.9L47.7,45.9z"/>
	</g>
</g>
<g>
	<g>
		<path class="st0" d="M61,36.1c2.2,2,4.4,4,6.5,6c2.3,2.3,5.8-1.3,3.5-3.5c-2.1-2.1-4.3-4.1-6.5-6C62.1,30.4,58.5,33.9,61,36.1
			L61,36.1z"/>
	</g>
</g>
</svg>
