<?xml version="1.0" encoding="utf-8"?>
<!-- Generator: Adobe Illustrator 21.1.0, SVG Export Plug-In . SVG Version: 6.00 Build 0)  -->
<svg version="1.1" id="Layer_1" xmlns="http://www.w3.org/2000/svg" xmlns:xlink="http://www.w3.org/1999/xlink" x="0px" y="0px"
	 viewBox="0 0 100 100" style="enable-background:new 0 0 100 100;" xml:space="preserve">
<style type="text/css">
	.st0{fill:#444445;}
	.st1{fill:none;stroke:#444445;stroke-width:4;stroke-miterlimit:10;}
</style>
<g>
	<g>
		<path class="st0" d="M49.5,28.8c9.4,0,18.5,1.5,27.4,4.2c3.2,1,6.4,1.9,9.5,3.3c2.1,0.9,8.8,3.8,8.7,6.8c-0.1,2.3-5.9,1.6-7.6,2.6
			c-2.3,1.3-3.6,3.8-4.4,6.2c-0.5,1.5-0.6,3.3-1.3,4.7c-1.7,3.7-4.8,3.4-7.4,0.9c-2.3-2.3-4-5-7.1-6.3c-2.7-1.1-5.4-0.5-8,0.5
			c-2.4,0.9-4,2.2-6.6,1.6c-2.3-0.5-2.8-2.1-4.8-3.1c-2.4-1.2-4.9-0.4-7,1c-1.4,1-2.7,3.2-4.3,3.7c-2.8,1-3.4-2.1-5-3.5
			c-1.7-1.5-3.9-1.9-6.1-1c-3.4,1.4-3.4,4-4.9,6.9c-0.7,1.3,0.7,1.5-1.4,1c-1.6-0.4-1.4-0.9-1.8-2.3c-0.5-1.6-0.8-3.4-1.5-4.9
			c-1.2-2.4-2.7-3.1-5.2-3.4c-2.3-0.3-4.9-0.1-3.5-3.3c0.7-1.6,2.3-2.9,3.6-4c2.8-2.3,6.1-4,9.4-5.5C29.5,30.6,39.3,29,49.5,28.8
			c3.2-0.1,3.2-5.1,0-5c-10.3,0.2-20.3,1.8-29.8,5.9C13.3,32.4,5,36.3,2.1,43.2c-1.1,2.7-1.3,6.1,0.9,8.3c1,1,2.2,1.4,3.6,1.6
			c3.1,0.3,4-1.4,5.3,2c1.3,3.4,1.5,7.6,5.1,9.5c2.9,1.5,6.2,0.5,7.6-2.5c0.7-1.5,0.6-7.7,4.2-6.2c0.9,0.4,1.9,3.3,3.1,4
			c3.1,1.8,6.4,0.2,8.8-1.9c1.6-1.4,1.7-2.1,4-2.2c2.6-0.1,1.7,0.1,3.5,1.5c1.1,0.9,2.4,1.4,3.8,1.5c5.7,0.6,10.4-5.6,15.6-1.3
			c3.2,2.6,4.8,6.6,9.3,7.4c3.6,0.7,6.6-1,8.4-4.1c2.1-3.5,1.5-10.1,6.2-11.1c3.5-0.8,7.3,0.1,8.5-4.4c2.1-8.2-9.5-13-15.3-15.1
			c-11.3-4.1-23.1-6.5-35.1-6.5C46.3,23.8,46.3,28.8,49.5,28.8z"/>
	</g>
</g>
<ellipse transform="matrix(0.9999 -1.032529e-02 1.032529e-02 0.9999 -0.3961 0.5194)" class="st1" cx="50.1" cy="38.6" rx="15.4" ry="3.7"/>
<g>
	<g>
		<path class="st0" d="M3.7,51.4c1.1,10.4,5.1,19.1,15.9,22.1c9.7,2.7,20.5,2.7,30.5,2.8c3.2,0,3.2-5,0-5
			c-7.9-0.1-15.9-0.3-23.7-1.5c-4.3-0.7-9.3-1.5-12.5-4.7c-3.6-3.5-4.6-8.8-5.1-13.6C8.4,48.3,3.4,48.2,3.7,51.4L3.7,51.4z"/>
	</g>
</g>
<g>
	<g>
		<path class="st0" d="M91.9,48.3c-0.4,4.3-1.1,8.7-3,12.6c-2.5,5.2-7.4,7-12.8,8.1c-8.2,1.7-16.9,2.1-25.3,2.3
			c-3.2,0.1-3.2,5.1,0,5c10.6-0.3,22.7-0.4,32.6-4.2c9.9-3.8,12.6-14.2,13.4-23.9C97.2,45.1,92.2,45.1,91.9,48.3L91.9,48.3z"/>
	</g>
</g>
<g>
	<g>
		<path class="st0" d="M25.2,43.7c1-1.2,2.1-2.3,3.1-3.5c0.9-1,1-2.6,0-3.5c-1-0.9-2.6-1-3.5,0c-1,1.2-2.1,2.3-3.1,3.5
			c-0.9,1-1,2.6,0,3.5C22.6,44.6,24.2,44.8,25.2,43.7L25.2,43.7z"/>
	</g>
</g>
<g>
	<g>
		<path class="st0" d="M30.5,48c1.1,1,2.2,1.9,3.3,2.8c0.5,0.4,1.4,0.4,1.9,0.3c0.6-0.2,1.2-0.6,1.5-1.1c0.7-1.3,0.2-2.6-0.9-3.4
			c-0.1-0.1-0.2-0.2-0.3-0.2c0.2,0.1,0.2,0.2,0,0c-0.2-0.2-0.5-0.4-0.7-0.6c-0.4-0.4-0.9-0.8-1.3-1.2c-1-0.9-2.6-1-3.5,0
			C29.6,45.5,29.4,47.1,30.5,48L30.5,48z"/>
	</g>
</g>
<g>
	<g>
		<path class="st0" d="M57.6,51.6c1.6-1,3-2.2,4.5-3.3c1-0.8,0.9-2.7,0-3.5c-1.1-1-2.5-0.9-3.5,0c-1.1,0.9-2.2,1.7-3.5,2.6
			c-1.1,0.7-1.7,2.2-0.9,3.4C54.9,51.8,56.4,52.4,57.6,51.6L57.6,51.6z"/>
	</g>
</g>
<g>
	<g>
		<path class="st0" d="M69.1,49c1.3,1,2.5,2,3.8,3c1,0.8,2.6,1.1,3.5,0c0.8-0.9,1.1-2.7,0-3.5c-1.3-1-2.5-2-3.8-3
			c-1-0.8-2.6-1.1-3.5,0C68.2,46.3,68,48.1,69.1,49L69.1,49z"/>
	</g>
</g>
<g>
	<g>
		<path class="st0" d="M74.5,39.6c0.2,0.2,0.5,0.3,0.7,0.5c-0.2-0.1-0.2-0.1,0,0c0.1,0.1,0.3,0.2,0.4,0.3c0.5,0.4,0.9,0.8,1.3,1.2
			c0.9,0.9,2.6,1,3.5,0c0.9-1,1-2.5,0-3.5c-1.1-1.1-2.2-2-3.5-2.9c-1.1-0.8-2.8-0.2-3.4,0.9C72.9,37.4,73.4,38.8,74.5,39.6
			L74.5,39.6z"/>
	</g>
</g>
<g>
	<g>
		<path class="st0" d="M86.3,44.8c0.8-0.4,1.6-0.9,2.4-1.3c1.1-0.6,1.6-2.3,0.9-3.4c-0.7-1.2-2.2-1.6-3.4-0.9
			c-0.8,0.4-1.6,0.9-2.4,1.3c-1.1,0.6-1.6,2.3-0.9,3.4C83.6,45.1,85,45.5,86.3,44.8L86.3,44.8z"/>
	</g>
</g>
<g>
	<g>
		<path class="st0" d="M12.5,47.1c1.4,0.2,2.8,0.4,4.3,0.6c1.3,0.2,2.7-0.3,3.1-1.7c0.3-1.2-0.4-2.9-1.7-3.1
			c-1.4-0.2-2.8-0.4-4.3-0.6c-1.3-0.2-2.7,0.3-3.1,1.7C10.4,45.2,11.2,46.9,12.5,47.1L12.5,47.1z"/>
	</g>
</g>
</svg>
