<?xml version="1.0" encoding="utf-8"?>
<!-- Generator: Adobe Illustrator 21.1.0, SVG Export Plug-In . SVG Version: 6.00 Build 0)  -->
<svg version="1.1" id="Layer_1" xmlns="http://www.w3.org/2000/svg" xmlns:xlink="http://www.w3.org/1999/xlink" x="0px" y="0px"
	 viewBox="0 0 100 200" style="enable-background:new 0 0 100 200;" xml:space="preserve">
<style type="text/css">
	.st0{fill:#444445;}
	.st1{fill:none;stroke:#444445;stroke-width:5;stroke-miterlimit:10;}
</style>
<g>
	<g>
		<path class="st0" d="M18.1,76.9c-7.9,12.4-13.9,28-5.1,41.8c6.5,10.1,21.2,14.6,30.9,6.1c10.9-9.6,10.1-28,3.2-39.7
			c-3.1-5.3-8.4-12.2-14.3-14.4C27,68.6,21.4,72.3,18.1,76.9c-1.9,2.6,2.5,5.1,4.3,2.5c8.5-11.9,20.5,6.4,23.1,14.3
			c3.1,9.5,2.4,24.9-8.4,29.4c-10.1,4.2-20-3.8-22.6-13.4c-3-11.2,2-21.2,7.9-30.4C24.1,76.7,19.8,74.2,18.1,76.9L18.1,76.9z"/>
	</g>
</g>
<circle class="st1" cx="31.1" cy="105.3" r="10.6"/>
<g>
	<g>
		<path class="st0" d="M77.8,79.2c5.7,9,10.7,18.7,8,29.6c-2.4,9.8-12.3,18.5-22.7,14.1c-10.5-4.4-11.4-19.2-8.7-28.6
			C56.8,86.2,69.1,67,77.8,79.2c1.8,2.6,6.2,0.1,4.3-2.5c-3.3-4.6-8.9-8.3-14.7-6.2c-5.9,2.2-11.2,9.1-14.3,14.4
			c-6.9,11.6-7.7,30.1,3.2,39.7c9.7,8.5,24.4,4.1,30.9-6.1c8.8-13.8,2.8-29.3-5.1-41.8C80.4,74,76,76.5,77.8,79.2L77.8,79.2z"/>
	</g>
</g>
<circle class="st1" cx="69.1" cy="105.1" r="10.6"/>
</svg>
