<?xml version="1.0" encoding="utf-8"?>
<!-- Generator: Adobe Illustrator 21.1.0, SVG Export Plug-In . SVG Version: 6.00 Build 0)  -->
<svg version="1.1" id="Layer_1" xmlns="http://www.w3.org/2000/svg" xmlns:xlink="http://www.w3.org/1999/xlink" x="0px" y="0px"
	 viewBox="0 0 100 200" style="enable-background:new 0 0 100 200;" xml:space="preserve">
<style type="text/css">
	.st0{fill:#444445;}
</style>
<g>
	<g>
		<path class="st0" d="M26.6,83.5c4.4,17.3,9,34.5,13.9,51.7c1.2,4.3,1.9,13.1,6.2,15.8c4.4,2.8,8.1-0.7,9.5-4.8
			c1-3.1-3.8-4.4-4.8-1.3c-1.4,4.2-2.9,0.2-3.5-1.8c-0.7-2.4-1.3-4.9-2-7.3c-1.7-5.9-3.4-11.9-5-17.8c-3.3-11.9-6.4-23.8-9.5-35.7
			C30.6,79.1,25.8,80.4,26.6,83.5L26.6,83.5z"/>
	</g>
</g>
<g>
	<g>
		<path class="st0" d="M68.5,82.3c-5.3,20.8-11,41.6-17,62.2c-0.9,3.1,3.9,4.4,4.8,1.3c6-20.6,11.7-41.4,17-62.2
			C74.1,80.5,69.3,79.2,68.5,82.3L68.5,82.3z"/>
	</g>
</g>
<g>
	<g>
		<path class="st0" d="M27.7,84.7c2.6,1.8,5.1,2,8.2,2.2c2.5,0.2,4.8,0.2,6.5,2.5c1.3,1.7,1.7,4.4,2.1,6.5c0.7,3.7,2.2,9.4,7.3,8.3
			c2.2-0.4,3-2.3,3.8-4.2c0.8-1.7,1.1-3.6,1.9-5.4c1.1-2.7,1.4-4.3,4.6-3.7c5.1,0.8,9.2-0.5,11-5.7c1.1-3-3.8-4.4-4.8-1.3
			c-1.6,4.6-9.9,0.1-13.3,3.8c-1.3,1.4-1.7,3.2-2.2,4.9c-0.6,2.2-1.7,7.8-3.3,3.3c-1.4-4-1.3-8.5-4.8-11.6
			c-4.2-3.6-10.1-0.9-14.4-3.9C27.6,78.5,25.1,82.9,27.7,84.7L27.7,84.7z"/>
	</g>
</g>
<g>
	<g>
		<path class="st0" d="M30.3,79.8C26.5,72,28.5,63,35,57.4c6.9-6,17.8-7.4,24.4-0.2c2.2,2.4,5.7-1.2,3.5-3.5
			c-8-8.9-21.5-7.8-30.4-0.7c-9,7.1-11.7,19.2-6.6,29.4C27.4,85.2,31.7,82.7,30.3,79.8L30.3,79.8z"/>
	</g>
</g>
<g>
	<g>
		<path class="st0" d="M60.6,58.5c2.4-0.8,5-0.5,6.5,1.7c1.5,2.2,0.8,4.8,0.3,7.2c-0.6,3.1,4.2,4.5,4.8,1.3
			c0.8-4.3,1.4-8.5-1.6-12.1c-2.7-3.3-7.3-4.4-11.3-2.9C56.3,54.7,57.6,59.6,60.6,58.5L60.6,58.5z"/>
	</g>
</g>
<g>
	<g>
		<path class="st0" d="M67.4,70.1c2.3,0.4,4.6,1.6,5.3,4c0.8,2.8-1.1,5.3-3.1,7c-2.5,2,1.1,5.6,3.5,3.5c3.5-2.8,5.7-7.4,4.4-11.9
			c-1.1-4-4.8-6.9-8.8-7.5C65.6,64.8,64.2,69.6,67.4,70.1L67.4,70.1z"/>
	</g>
</g>
</svg>
