<?xml version="1.0" encoding="utf-8"?>
<!-- Generator: Adobe Illustrator 21.1.0, SVG Export Plug-In . SVG Version: 6.00 Build 0)  -->
<svg version="1.1" id="Layer_1" xmlns="http://www.w3.org/2000/svg" xmlns:xlink="http://www.w3.org/1999/xlink" x="0px" y="0px"
	 viewBox="0 0 100 200" style="enable-background:new 0 0 100 200;" xml:space="preserve">
<style type="text/css">
	.st0{fill:#444445;}
</style>
<g>
	<g>
		<path class="st0" d="M40.2,101.1c-5.3-0.3-10.7,0.9-12.7,6.4c-2.3,6,2,10.2,7.8,11.2c5.2,0.9,13.2-0.7,14.7-6.7
			c1.6-6.2-4.1-10.1-9.4-10.8c-3.2-0.4-3.2,4.6,0,5c4,0.5,6.5,5.1,1.8,7c-2.4,1-5.5,1.1-7.9,0.2c-1.5-0.5-2.6-1.2-2.6-2.9
			c0-1.3,0.9-2.7,1.9-3.4c1.8-1.2,4.3-1,6.4-0.9C43.4,106.3,43.4,101.3,40.2,101.1L40.2,101.1z"/>
	</g>
</g>
<g>
	<g>
		<path class="st0" d="M39.7,87.7C34.5,87.4,29,88.6,27,94.1c-2.3,6,2,10.2,7.8,11.2c5.2,0.9,13.2-0.7,14.7-6.7
			c1.6-6.2-4.1-10.1-9.4-10.8c-3.2-0.4-3.2,4.6,0,5c4,0.5,6.5,5.1,1.8,7c-2.4,1-5.5,1.1-7.9,0.2c-1.5-0.5-2.6-1.2-2.6-2.9
			c0-1.3,0.9-2.7,1.9-3.4c1.8-1.2,4.3-1,6.4-0.9C42.9,92.8,42.9,87.8,39.7,87.7L39.7,87.7z"/>
	</g>
</g>
<g>
	<g>
		<path class="st0" d="M39.6,73.9C34.4,73.6,29,74.8,27,80.2c-2.3,6,2,10.2,7.8,11.2c5.2,0.9,13.2-0.7,14.7-6.7
			c1.6-6.2-4.1-10.1-9.4-10.8c-3.2-0.4-3.2,4.6,0,5c4,0.5,6.5,5.1,1.8,7c-2.4,1-5.5,1.1-7.9,0.2c-1.5-0.5-2.6-1.2-2.6-2.9
			c0-1.3,0.9-2.7,1.9-3.4c1.8-1.2,4.3-1,6.4-0.9C42.9,79,42.9,74,39.6,73.9L39.6,73.9z"/>
	</g>
</g>
<g>
	<g>
		<path class="st0" d="M39.2,60.4c-5.3-0.3-10.7,0.9-12.7,6.4c-2.3,6,2,10.2,7.8,11.2c5.2,0.9,13.2-0.7,14.7-6.7
			c1.6-6.2-4.1-10.1-9.4-10.8c-3.2-0.4-3.2,4.6,0,5c4,0.5,6.5,5.1,1.8,7c-2.4,1-5.5,1.1-7.9,0.2c-1.5-0.5-2.6-1.2-2.6-2.9
			c0-1.3,0.9-2.7,1.9-3.4c1.8-1.2,4.3-1,6.4-0.9C42.4,65.6,42.4,60.6,39.2,60.4L39.2,60.4z"/>
	</g>
</g>
<g>
	<g>
		<path class="st0" d="M34.5,61c-2.6-1.2-0.5-3.3,0.6-4.7c1.1-1.4,1.8-2.7,2.4-4.5c0.1-0.4,0.2-0.8,0.3-1.2c0.5-0.7,0.4-1-0.3-0.9
			c-1.2-0.7,0.6,2.2,0.8,2.6c0.5,0.9,4.2,6.9,2.5,7.5c-3,1.1-1.7,6,1.3,4.8c4.5-1.7,4.7-6.3,2.9-10.2c-1.2-2.6-2.5-5.7-4.2-8
			C39.7,45,38,44.2,36.1,45c-1.8,0.8-2.7,2.5-3.2,4.3c-0.8,2.4-2,3.9-3.4,6c-2.3,3.5-1.7,8.2,2.4,10C34.9,66.6,37.4,62.3,34.5,61
			L34.5,61z"/>
	</g>
</g>
<g>
	<g>
		<path class="st0" d="M36,116.8c0,12.1,0,24.2,0,36.3c0,3.2,5,3.2,5,0c0-12.1,0-24.2,0-36.3C41,113.6,36,113.6,36,116.8L36,116.8z"
			/>
	</g>
</g>
<g>
	<g>
		<path class="st0" d="M64.1,101.1c-5.3-0.3-10.7,0.9-12.7,6.4c-2.3,6,2,10.2,7.8,11.2c5.2,0.9,13.2-0.7,14.7-6.7
			c1.6-6.2-4.1-10.1-9.4-10.8c-3.2-0.4-3.2,4.6,0,5c4,0.5,6.5,5.1,1.8,7c-2.4,1-5.5,1.1-7.9,0.2c-1.5-0.5-2.6-1.2-2.6-2.9
			c0-1.3,0.9-2.7,1.9-3.4c1.8-1.2,4.3-1,6.4-0.9C67.3,106.3,67.3,101.3,64.1,101.1L64.1,101.1z"/>
	</g>
</g>
<g>
	<g>
		<path class="st0" d="M63.6,87.7c-5.3-0.3-10.7,0.9-12.7,6.4c-2.3,6,2,10.2,7.8,11.2c5.2,0.9,13.2-0.7,14.7-6.7
			c1.6-6.2-4.1-10.1-9.4-10.8c-3.2-0.4-3.2,4.6,0,5c4,0.5,6.5,5.1,1.8,7c-2.4,1-5.5,1.1-7.9,0.2c-1.5-0.5-2.6-1.2-2.6-2.9
			c0-1.3,0.9-2.7,1.9-3.4c1.8-1.2,4.3-1,6.4-0.9C66.9,92.8,66.8,87.8,63.6,87.7L63.6,87.7z"/>
	</g>
</g>
<g>
	<g>
		<path class="st0" d="M63.6,73.9c-5.3-0.3-10.7,0.9-12.7,6.4c-2.3,6,2,10.2,7.8,11.2c5.2,0.9,13.2-0.7,14.7-6.7
			c1.6-6.2-4.1-10.1-9.4-10.8c-3.2-0.4-3.2,4.6,0,5c4,0.5,6.5,5.1,1.8,7c-2.4,1-5.5,1.1-7.9,0.2c-1.5-0.5-2.6-1.2-2.6-2.9
			c0-1.3,0.9-2.7,1.9-3.4c1.8-1.2,4.3-1,6.4-0.9C66.8,79,66.8,74,63.6,73.9L63.6,73.9z"/>
	</g>
</g>
<g>
	<g>
		<path class="st0" d="M63.1,60.4c-5.3-0.3-10.7,0.9-12.7,6.4c-2.3,6,2,10.2,7.8,11.2c5.2,0.9,13.2-0.7,14.7-6.7
			c1.6-6.2-4.1-10.1-9.4-10.8c-3.2-0.4-3.2,4.6,0,5c4,0.5,6.5,5.1,1.8,7c-2.4,1-5.5,1.1-7.9,0.2c-1.5-0.5-2.6-1.2-2.6-2.9
			c0-1.3,0.9-2.7,1.9-3.4c1.8-1.2,4.3-1,6.4-0.9C66.3,65.6,66.3,60.6,63.1,60.4L63.1,60.4z"/>
	</g>
</g>
<g>
	<g>
		<path class="st0" d="M58.4,61c-2.6-1.2-0.5-3.3,0.6-4.7c1.1-1.4,1.8-2.7,2.4-4.5c0.1-0.4,0.2-0.8,0.3-1.2c0.5-0.7,0.4-1-0.3-0.9
			c-1.2-0.7,0.6,2.2,0.8,2.6c0.5,0.9,4.2,6.9,2.5,7.5c-3,1.1-1.7,6,1.3,4.8c4.5-1.7,4.7-6.3,2.9-10.2c-1.2-2.6-2.5-5.7-4.2-8
			c-1.1-1.5-2.8-2.3-4.6-1.6c-1.8,0.8-2.7,2.5-3.2,4.3c-0.8,2.4-2,3.9-3.4,6c-2.3,3.5-1.7,8.2,2.4,10C58.8,66.6,61.3,62.3,58.4,61
			L58.4,61z"/>
	</g>
</g>
<g>
	<g>
		<path class="st0" d="M60,116.8c0,12.1,0,24.2,0,36.3c0,3.2,5,3.2,5,0c0-12.1,0-24.2,0-36.3C65,113.6,60,113.6,60,116.8L60,116.8z"
			/>
	</g>
</g>
</svg>
