<?xml version="1.0" encoding="utf-8"?>
<!-- Generator: Adobe Illustrator 21.1.0, SVG Export Plug-In . SVG Version: 6.00 Build 0)  -->
<svg version="1.1" id="Layer_1" xmlns="http://www.w3.org/2000/svg" xmlns:xlink="http://www.w3.org/1999/xlink" x="0px" y="0px"
	 viewBox="0 0 100 200" style="enable-background:new 0 0 100 200;" xml:space="preserve">
<style type="text/css">
	.st0{fill:#444445;}
</style>
<g>
	<g>
		<path class="st0" d="M19.4,97c5.2-3.1,7.6-8.5,12-12.4c3.7-3.3,8.9-4.1,13.3-1.7c2.5,1.4,4.6,3.4,7.5,3.9
			c7.2,1.2,15.2-7.2,20.6,1.5c2.9,4.8,4.1,10.5,10.9,10.5c3.2,0,3.2-5,0-5c-4.7,0-5.5-7.2-7.9-10c-1.6-1.9-3.6-3.2-6-3.9
			c-2.7-0.7-5.5-0.7-8.2-0.1c-2.1,0.5-4.2,1.8-6.3,2c-3.5,0.4-4.9-1.2-7.4-2.8c-5.1-3.1-11.4-3.3-16.6-0.4
			c-6,3.4-8.4,10.6-14.3,14.1C14.1,94.3,16.6,98.6,19.4,97L19.4,97z"/>
	</g>
</g>
<g>
	<g>
		<path class="st0" d="M14.7,96c2.8,4.8,5.6,9.7,8.4,14.5c1.6,2.8,5.9,0.3,4.3-2.5c-2.8-4.8-5.6-9.7-8.4-14.5
			C17.4,90.7,13.1,93.2,14.7,96L14.7,96z"/>
	</g>
</g>
<g>
	<g>
		<path class="st0" d="M83.6,92.9c-2.8,4.8-5.6,9.7-8.4,14.5c-1.6,2.8,2.7,5.3,4.3,2.5c2.8-4.8,5.6-9.7,8.4-14.5
			C89.5,92.6,85.2,90.1,83.6,92.9L83.6,92.9z"/>
	</g>
</g>
<g>
	<g>
		<path class="st0" d="M25.3,111.6c17.3,0,34.5,0,51.8,0c3.2,0,3.2-5,0-5c-17.3,0-34.5,0-51.8,0C22,106.6,22,111.6,25.3,111.6
			L25.3,111.6z"/>
	</g>
</g>
<g>
	<g>
		<path class="st0" d="M21.1,102.2c4.9-1.9,7.4-6.4,11.7-9.2c2.9-1.9,6.6-3.2,9.8-1.3c2.4,1.4,4,4,6,5.8c3.4,3,7.2,3.7,11.6,3.2
			c6.4-0.7,13.2-1.6,15.4,6.2c0.9,3.1,5.7,1.8,4.8-1.3c-1.3-4.7-4.6-8.6-9.4-10c-3-0.9-6-0.5-9.1-0.1c-4.9,0.7-8.2,0.4-11.8-3.5
			c-3.8-4-7.6-7.1-13.5-6.1c-2.9,0.5-5.5,1.9-7.8,3.7c-3,2.3-5.5,6.3-9.1,7.7C16.8,98.6,18.1,103.4,21.1,102.2L21.1,102.2z"/>
	</g>
</g>
<g>
	<g>
		<path class="st0" d="M24.6,100.5c3.8-2.3,8.9-4.6,13.3-2.1c3.1,1.8,4.5,5.5,7.7,7.3c6,3.5,15.2-1,19.9,4.3
			c2.2,2.4,5.7-1.1,3.5-3.5c-2.4-2.6-5.5-3.8-9-4c-2.6-0.2-5.2,0.3-7.8,0.1c-4-0.3-6-2.7-8.4-5.4c-6-6.9-14.7-5.2-21.8-1
			C19.3,97.8,21.8,102.2,24.6,100.5L24.6,100.5z"/>
	</g>
</g>
<g>
	<g>
		<path class="st0" d="M23,103.3c4.4-1.4,8-1.2,11.7,1.8c2,1.6,3.7,3.1,6.1,4.1c4.8,2.1,10,2.3,15,0.7c3.1-0.9,1.8-5.8-1.3-4.8
			c-7.8,2.4-12.3-1-18.3-5.2c-4.4-3.1-9.4-3-14.4-1.4C18.6,99.4,19.9,104.3,23,103.3L23,103.3z"/>
	</g>
</g>
<g>
	<g>
		<path class="st0" d="M50.7,86.4c3.6,2.2,5.7,5.9,8.5,8.9c2.6,2.8,5.6,4.5,9.4,5c3.2,0.3,3.2-4.7,0-5c-3.8-0.4-6.3-3.8-8.5-6.6
			c-2-2.6-4.1-4.9-6.9-6.6C50.4,80.4,47.9,84.7,50.7,86.4L50.7,86.4z"/>
	</g>
</g>
<g>
	<g>
		<path class="st0" d="M79.9,100.8c-2.7-1.1-4.5-5-6.1-7.3c-1.3-1.8-2.6-3.6-4.2-5.2c-3.1-3-6.7-4.9-11.1-5.1c-3.2-0.1-3.2,4.9,0,5
			c10.4,0.4,11.5,14,20.1,17.3C81.6,106.8,82.9,101.9,79.9,100.8L79.9,100.8z"/>
	</g>
</g>
<g>
	<g>
		<path class="st0" d="M10,52.6c4.7,10.5,9.4,21,14.1,31.4c1.3,2.9,5.6,0.4,4.3-2.5C23.7,71,19,60.6,14.3,50.1
			C13,47.2,8.6,49.7,10,52.6L10,52.6z"/>
	</g>
</g>
<g>
	<g>
		<path class="st0" d="M19.2,47.9c3.3,11,6.5,22,9.8,33c0.9,3.1,5.7,1.8,4.8-1.3c-3.3-11-6.5-22-9.8-33
			C23.1,43.5,18.3,44.8,19.2,47.9L19.2,47.9z"/>
	</g>
</g>
<g>
	<g>
		<path class="st0" d="M22.8,110.2c2.5,14.2,5.1,28.3,7.6,42.5c0.6,3.2,5.4,1.8,4.8-1.3c-2.5-14.2-5.1-28.3-7.6-42.5
			C27.1,105.7,22.3,107,22.8,110.2L22.8,110.2z"/>
	</g>
</g>
<g>
	<g>
		<path class="st0" d="M74.4,108.5c-2.5,14.2-5.1,28.3-7.6,42.5c-0.6,3.1,4.3,4.5,4.8,1.3c2.5-14.2,5.1-28.3,7.6-42.5
			C79.8,106.6,75,105.3,74.4,108.5L74.4,108.5z"/>
	</g>
</g>
<g>
	<g>
		<path class="st0" d="M32.9,154.9c12.1,0,24.2,0,36.3,0c3.2,0,3.2-5,0-5c-12.1,0-24.2,0-36.3,0C29.7,149.9,29.7,154.9,32.9,154.9
			L32.9,154.9z"/>
	</g>
</g>
<g>
	<g>
		<path class="st0" d="M16.2,101.4c0.8-1.6,1.6-3.2,2.4-4.8c0.6-1.2,0.3-2.7-0.9-3.4c-1.1-0.6-2.8-0.3-3.4,0.9
			c-0.8,1.6-1.6,3.2-2.4,4.8c-0.6,1.2-0.3,2.7,0.9,3.4C13.8,103,15.6,102.7,16.2,101.4L16.2,101.4z"/>
	</g>
</g>
<g>
	<g>
		<path class="st0" d="M12.1,103c4,4.6,8.1,9.2,12.2,13.7c2.2,2.4,5.7-1.2,3.5-3.5c-4.2-4.5-8.2-9-12.2-13.7
			C13.5,97,10,100.6,12.1,103L12.1,103z"/>
	</g>
</g>
<g>
	<g>
		<path class="st0" d="M90.8,97.9c-0.8-1.6-1.6-3.2-2.4-4.8c-0.6-1.2-2.3-1.5-3.4-0.9c-1.2,0.7-1.5,2.2-0.9,3.4
			c0.8,1.6,1.6,3.2,2.4,4.8c0.6,1.2,2.3,1.5,3.4,0.9C91.1,100.6,91.4,99.2,90.8,97.9L90.8,97.9z"/>
	</g>
</g>
<g>
	<g>
		<path class="st0" d="M87,98.5c-4,4.6-8.1,9.2-12.2,13.7c-2.2,2.4,1.3,5.9,3.5,3.5c4.2-4.5,8.2-9,12.2-13.7
			C92.6,99.6,89.1,96,87,98.5L87,98.5z"/>
	</g>
</g>
</svg>
