<?xml version="1.0" encoding="utf-8"?>
<!-- Generator: Adobe Illustrator 21.1.0, SVG Export Plug-In . SVG Version: 6.00 Build 0)  -->
<svg version="1.1" id="Layer_1" xmlns="http://www.w3.org/2000/svg" xmlns:xlink="http://www.w3.org/1999/xlink" x="0px" y="0px"
	 viewBox="0 0 100 100" style="enable-background:new 0 0 100 100;" xml:space="preserve">
<style type="text/css">
	.st0{fill:#444445;}
	.st1{fill:none;stroke:#444445;stroke-width:4;stroke-miterlimit:10;}
</style>
<g>
	<g>
		<path class="st0" d="M21,38.6c14-16.4,37.7-16.1,51.4,0.5c2.1,2.5,5.6-1.1,3.5-3.5C60.6,17,33.2,16.8,17.5,35.1
			C15.4,37.5,18.9,41.1,21,38.6L21,38.6z"/>
	</g>
</g>
<g>
	<g>
		<g>
			<path class="st0" d="M17.4,39.3c8.9,17.5,17.8,34.9,26.7,52.4c1.5,2.9,5.8,0.3,4.3-2.5c-8.9-17.5-17.8-34.9-26.7-52.4
				C20.3,33.9,16,36.4,17.4,39.3L17.4,39.3z"/>
		</g>
	</g>
	<g>
		<g>
			<path class="st0" d="M71.6,36.7c-8.9,17.5-17.8,34.9-26.7,52.4c-1.5,2.9,2.9,5.4,4.3,2.5C58.1,74.2,67,56.7,75.9,39.3
				C77.4,36.4,73.1,33.9,71.6,36.7L71.6,36.7z"/>
		</g>
	</g>
</g>
<g>
	<g>
		<path class="st0" d="M25.5,24.3C41.7,7.7,68.9,7.9,84.9,24.7c2.2,2.3,5.7-1.2,3.5-3.5C70.6,2.4,40,2.3,21.9,20.8
			C19.7,23.1,23.2,26.6,25.5,24.3L25.5,24.3z"/>
	</g>
</g>
<g>
	<g>
		<path class="st0" d="M12.3,24.9c-1.9,5.7,0.2,11.4,5.1,14.8c2.7,1.8,5.2-2.5,2.5-4.3c-3.1-2.1-4-5.7-2.8-9.1
			C18.1,23.2,13.3,21.9,12.3,24.9L12.3,24.9z"/>
	</g>
</g>
<g>
	<g>
		<path class="st0" d="M76.1,26.2c1.3,3.4,0.7,7-2.3,9.3c-2.5,1.9,0,6.3,2.5,4.3c4.7-3.6,6.7-9.3,4.6-14.9
			C79.8,21.9,75,23.2,76.1,26.2L76.1,26.2z"/>
	</g>
</g>
<g>
	<g>
		<path class="st0" d="M31.8,41.4c1.3,1,2.6,2,4,3c1,0.8,2.8,0.2,3.4-0.9c0.7-1.3,0.2-2.6-0.9-3.4c-1.3-1-2.6-2-4-3
			c-1-0.8-2.8-0.2-3.4,0.9C30.2,39.3,30.7,40.5,31.8,41.4L31.8,41.4z"/>
	</g>
</g>
<circle class="st1" cx="55.2" cy="39.5" r="5.6"/>
<circle class="st1" cx="41.7" cy="54.4" r="4"/>
<g>
	<g>
		<path class="st0" d="M54.3,52.6c0,0-0.1,0-0.1,0c-1.3,0-2.6,1.1-2.5,2.5c0.1,1.4,1.1,2.5,2.5,2.5c0,0,0.1,0,0.1,0
			c1.3,0,2.6-1.1,2.5-2.5C56.8,53.8,55.8,52.6,54.3,52.6L54.3,52.6z"/>
	</g>
</g>
<g>
	<g>
		<path class="st0" d="M49.2,71.5c0.7-1.3,1.4-2.6,2.1-4c0.6-1.2,0.3-2.8-0.9-3.4c-1.2-0.6-2.8-0.3-3.4,0.9c-0.7,1.3-1.4,2.6-2.1,4
			c-0.6,1.2-0.3,2.8,0.9,3.4C47,73,48.6,72.7,49.2,71.5L49.2,71.5z"/>
	</g>
</g>
</svg>
