<?xml version="1.0" encoding="utf-8"?>
<!-- Generator: Adobe Illustrator 21.1.0, SVG Export Plug-In . SVG Version: 6.00 Build 0)  -->
<svg version="1.1" id="Layer_1" xmlns="http://www.w3.org/2000/svg" xmlns:xlink="http://www.w3.org/1999/xlink" x="0px" y="0px"
	 viewBox="0 0 100 200" style="enable-background:new 0 0 100 200;" xml:space="preserve">
<style type="text/css">
	.st0{fill:#444445;}
</style>
<g>
	<g>
		<path class="st0" d="M35.5,148.4c-4.5-16.9-8.8-33.9-13.4-50.8c-1.1-3.9-2.5-7.8-3.2-11.8c-0.3-1.8-0.8-4.6,0-6.3
			c1.9-3.8,6.9-1.6,8.4,1.5c1.4,2.9,5.7,0.4,4.3-2.5c-2.5-5.4-9.9-8.1-14.9-4.1c-4.3,3.5-3.3,10-2.2,14.7
			c4.8,20.3,10.9,40.5,16.2,60.6C31.5,152.9,36.3,151.5,35.5,148.4L35.5,148.4z"/>
	</g>
</g>
<g>
	<g>
		<path class="st0" d="M31.9,80.8c1.7-4.7,7.3-3.8,9.1,0.2c1.3,3,5.6,0.4,4.3-2.5c-3.6-8.5-15.2-7.2-18.2,0.9
			C26,82.5,30.8,83.8,31.9,80.8L31.9,80.8z"/>
	</g>
</g>
<g>
	<g>
		<path class="st0" d="M45.6,81.2c1.7-4.7,7.3-3.8,9.1,0.2c1.3,3,5.6,0.4,4.3-2.5c-3.6-8.5-15.2-7.2-18.2,0.9
			C39.7,82.9,44.5,84.2,45.6,81.2L45.6,81.2z"/>
	</g>
</g>
<g>
	<g>
		<path class="st0" d="M59.4,81.2c1.7-4.7,7.3-3.8,9.1,0.2c1.3,3,5.6,0.4,4.3-2.5c-3.6-8.5-15.2-7.2-18.2,0.9
			C53.4,82.9,58.3,84.2,59.4,81.2L59.4,81.2z"/>
	</g>
</g>
<g>
	<g>
		<path class="st0" d="M69.7,149.7C74.9,129.8,81,110,85.8,90.1c1.1-4.6,2.1-11-2-14.5c-5-4.3-12.6-1.6-15.2,3.9
			c-1.4,2.9,2.9,5.4,4.3,2.5c1.5-3.1,6.4-5.3,8.4-1.5c0.9,1.6,0.4,4.1,0.1,5.8c-0.7,4.2-2.2,8.2-3.3,12.3
			c-4.5,16.6-8.9,33.2-13.3,49.8C64,151.5,68.8,152.8,69.7,149.7L69.7,149.7z"/>
	</g>
</g>
<g>
	<g>
		<path class="st0" d="M33.4,151.5c11.3,0,22.6,0,33.8,0c3.2,0,3.2-5,0-5c-11.3,0-22.6,0-33.8,0C30.2,146.5,30.2,151.5,33.4,151.5
			L33.4,151.5z"/>
	</g>
</g>
<g>
	<g>
		<path class="st0" d="M27.2,81.3c3.6,22.6,7.2,45.2,10.8,67.8c0.5,3.2,5.3,1.8,4.8-1.3c-3.6-22.6-7.2-45.2-10.8-67.8
			C31.5,76.8,26.7,78.1,27.2,81.3L27.2,81.3z"/>
	</g>
</g>
<g>
	<g>
		<path class="st0" d="M68.4,79.9c-3.6,22.6-7.2,45.2-10.8,67.8c-0.5,3.1,4.3,4.5,4.8,1.3c3.6-22.6,7.2-45.2,10.8-67.8
			C73.7,78.1,68.9,76.8,68.4,79.9L68.4,79.9z"/>
	</g>
</g>
<g>
	<g>
		<path class="st0" d="M40.8,80.2c1.3,22.8,2.7,45.7,4,68.5c0.2,3.2,5.2,3.2,5,0c-1.3-22.8-2.7-45.7-4-68.5
			C45.6,77,40.6,77,40.8,80.2L40.8,80.2z"/>
	</g>
</g>
<g>
	<g>
		<path class="st0" d="M54.2,80.1c-1.3,22.8-2.7,45.7-4,68.5c-0.2,3.2,4.8,3.2,5,0c1.3-22.8,2.7-45.7,4-68.5
			C59.4,76.8,54.4,76.9,54.2,80.1L54.2,80.1z"/>
	</g>
</g>
<g>
	<g>
		<path class="st0" d="M27.3,75.8c0.4-1.4,1.3-3.2,3-3.3c1.8-0.1,2.6,2,3.2,3.4c1.3,2.9,5.6,0.4,4.3-2.5c-1.5-3.3-4.2-6.2-8.2-5.8
			c-3.8,0.4-6.2,3.5-7.2,6.9C21.5,77.5,26.4,78.8,27.3,75.8L27.3,75.8z"/>
	</g>
</g>
<g>
	<g>
		<path class="st0" d="M36.6,71.7c1.4-3,4.2,0.1,6.5,0c2.9-0.1,2.8-2.1,4.5-3.6c-0.6,0.2-1.2,0.5-1.8,0.7c2.5-0.3,2.8,4.5,2.2,5.7
			c-1.2,3,3.6,4.3,4.8,1.3c1.8-4.3-2.4-14.9-8.3-11.7c-0.9,0.5-1.4,2.4-2,2.7c0.4-0.2-3.1-1.6-3.5-1.6c-2.9-0.2-5.6,1.4-6.7,4
			C30.9,72.1,35.3,74.7,36.6,71.7L36.6,71.7z"/>
	</g>
</g>
<g>
	<g>
		<path class="st0" d="M52.5,71.8c0.3-0.3,0.7-0.8,1.1-1c1-0.6,1-0.4,1.9,0.1c0.9,0.4,1.7,0.8,2.8,0.7c0.4,0,2.3-0.7,2.6-0.5
			c0.5,0.3,0.1,3.3,0.1,3.9c0.3,3.2,5.3,3.2,5,0c-0.2-2.3,0.4-4.5-0.8-6.6c-1.1-1.8-3-2.5-5-2.2c-0.9,0.1-1.6,0.5-2.5,0.2
			c-1.1-0.4-1.7-1-2.9-1.1c-2.4-0.1-4.2,1.3-5.9,3C46.7,70.6,50.2,74.1,52.5,71.8L52.5,71.8z"/>
	</g>
</g>
<g>
	<g>
		<path class="st0" d="M65.1,73.3c0.9-1,3.5-1.7,4.8-0.8c1.3,1,1.5,3.9,1.7,5.4c0.4,3.2,5.3,1.8,4.8-1.3c-0.5-3.4-1.6-7.5-5.1-8.9
			c-3.1-1.2-7.6-0.4-9.8,2.1C59.5,72.1,63,75.7,65.1,73.3L65.1,73.3z"/>
	</g>
</g>
<g>
	<g>
		<path class="st0" d="M30.9,68.8c-0.3-1.7,1.4-3.4,2.1-4.8c0.7-1.5,1.1-3.6,3-1.9c0.9,0.7,1.4,1.9,2.3,2.6c1.1,0.9,3.1,1.3,3.1,3.1
			c0.1,3.2,5.1,3.2,5,0c-0.1-3.5-1.9-4.6-4.4-6.5c-2.4-1.8-3.3-4.8-6.8-4.9c-3-0.1-4.9,1.7-6.1,4.3c-1.5,3.3-3.7,5.7-3,9.5
			C26.7,73.3,31.5,72,30.9,68.8L30.9,68.8z"/>
	</g>
</g>
<g>
	<g>
		<path class="st0" d="M43.2,63.3c1.2-4,4.6-0.9,7.1-0.8c1.2,0.1,2.4-0.5,3.3,0.2c1.3,1,1.1,3.3,0.8,4.7c-0.8,3.1,4,4.5,4.8,1.3
			c0.7-2.8,0.5-5.7-1-8.1c-1.6-2.7-3.6-3.3-6.6-3.2c-1.5,0.1-2.5-0.8-3.9-1.2c-1.4-0.4-2.8-0.3-4.2,0.1c-2.7,0.8-4.4,3-5.2,5.6
			C37.5,65.1,42.3,66.4,43.2,63.3L43.2,63.3z"/>
	</g>
</g>
<g>
	<g>
		<path class="st0" d="M58.2,64c3.9-4.6,9,0.5,9.5,5c0.3,3.2,5.3,3.2,5,0c-0.4-4.4-2.5-8.8-6.6-10.7c-3.8-1.8-8.6-1-11.4,2.2
			C52.6,62.9,56.1,66.4,58.2,64L58.2,64z"/>
	</g>
</g>
<g>
	<g>
		<path class="st0" d="M37.9,58.8c1.3-1.9,2.9-4,5.2-4.5c2.7-0.5,3.9,1.3,4.7,3.6c1,3.1,5.8,1.8,4.8-1.3c-1.2-3.9-4-7.4-8.4-7.4
			c-4.8,0-8.1,3.4-10.6,7.1C31.8,59,36.1,61.5,37.9,58.8L37.9,58.8z"/>
	</g>
</g>
<g>
	<g>
		<path class="st0" d="M51.4,54.9c0.5-1.1,1.4-2,2.6-1.2c0.6,0.4,1,1.4,1.5,2c0.5,0.6,1.1,1,1.8,1.3c1,0.4,2.4,0,2.4,1.4
			c0,3.2,5,3.2,5,0c0-2-0.7-3.8-2.3-5c-0.9-0.7-1.8-0.6-2.8-1.1c-1-0.5-1.4-1.5-2.2-2.3c-3.3-2.9-8.5-1.6-10.3,2.4
			C45.8,55.3,50.1,57.9,51.4,54.9L51.4,54.9z"/>
	</g>
</g>
<g>
	<g>
		<path class="st0" d="M61,57.8c1.8-0.6,4.5-1.6,6.2-0.3c1.4,1,1.2,3,1.8,4.5c1.1,2.4,6.5,4.2,3.6,7.1c-2.3,2.3,1.3,5.8,3.5,3.5
			c1.9-1.9,2.9-4.5,2.2-7.2c-0.3-1.2-1-2.4-2-3.3c-1-0.9-2.3-1.2-2.9-2.4c-0.6-1.3-0.6-2.8-1.3-4c-0.7-1.2-1.7-2.1-2.9-2.7
			c-3-1.6-6.5-1-9.6,0.1C56.6,53.9,57.9,58.8,61,57.8L61,57.8z"/>
	</g>
</g>
<g>
	<g>
		<path class="st0" d="M75.4,72c0.9,0.7,1.6,2,1.7,3c0.1,1.3,1.1,2.5,2.5,2.5c1.2,0,2.6-1.1,2.5-2.5c-0.3-3-1.7-5.5-4.2-7.3
			c-1.1-0.8-2.8-0.2-3.4,0.9C73.8,69.8,74.3,71.2,75.4,72L75.4,72z"/>
	</g>
</g>
<g>
	<g>
		<path class="st0" d="M20.6,74.9c-0.2-0.5-0.5-1.3-0.4-1.8c0.1-0.8,0.2-0.6,0.7-1c0.9-0.7,1.6-1.1,2.1-2.2c0.3-0.8,0.1-1.9,0.6-2.6
			c0.8-1.1,2.7-1.1,3.9-0.8c3.1,0.7,4.5-4.1,1.3-4.8c-3.9-0.9-9.4,0.3-10.2,4.9c-0.1,0.3,0,0.9-0.2,1.2c-0.2,0.3,0.5-0.2-0.6,0.2
			c-0.8,0.3-1.5,1.3-1.9,1.9c-1.1,2-0.7,4.3-0.1,6.3C16.7,79.3,21.6,78,20.6,74.9L20.6,74.9z"/>
	</g>
</g>
</svg>
