<?xml version="1.0" encoding="utf-8"?>
<!-- Generator: Adobe Illustrator 21.1.0, SVG Export Plug-In . SVG Version: 6.00 Build 0)  -->
<svg version="1.1" id="Layer_1" xmlns="http://www.w3.org/2000/svg" xmlns:xlink="http://www.w3.org/1999/xlink" x="0px" y="0px"
	 viewBox="0 0 100 200" style="enable-background:new 0 0 100 200;" xml:space="preserve">
<style type="text/css">
	.st0{fill:none;stroke:#444445;stroke-width:4.5;stroke-miterlimit:10;}
	.st1{fill:#444445;}
</style>
<ellipse class="st0" cx="50" cy="35.1" rx="28.2" ry="5.3"/>
<g>
	<g>
		<path class="st1" d="M19.7,35.9c0,3.4,0,6.8,0,10.2c0,1.2,0.8,2,1.8,2.4c17.9,7,39.7,7.7,57.2-0.5c2.9-1.4,0.4-5.7-2.5-4.3
			c-16.3,7.6-36.8,6.5-53.3,0c0.6,0.8,1.2,1.6,1.8,2.4c0-3.4,0-6.8,0-10.2C24.7,32.6,19.7,32.6,19.7,35.9L19.7,35.9z"/>
	</g>
</g>
<g>
	<g>
		<path class="st1" d="M80.4,45.5c0-3.5,0-7.1,0-10.6c0-3.2-5-3.2-5,0c0,3.5,0,7.1,0,10.6C75.4,48.7,80.4,48.7,80.4,45.5L80.4,45.5z
			"/>
	</g>
</g>
<g>
	<g>
		<path class="st1" d="M22.7,47.4c0,36.7,0,73.3,0,110c0,0.9,0.5,1.7,1.2,2.2c15.5,8.6,35.6,9.6,51.2,1c2.8-1.6,0.3-5.9-2.5-4.3
			c-14,7.7-32.2,6.7-46.1-1c0.4,0.7,0.8,1.4,1.2,2.2c0-36.7,0-73.3,0-110C27.7,44.2,22.7,44.2,22.7,47.4L22.7,47.4z"/>
	</g>
</g>
<g>
	<g>
		<path class="st1" d="M72,48.1c0,36.7,0,73.3,0,110c0,3.2,5,3.2,5,0c0-36.7,0-73.3,0-110C77,44.9,72,44.9,72,48.1L72,48.1z"/>
	</g>
</g>
<g>
	<g>
		<path class="st1" d="M51.3,77.2c-10.2,1-24,6.6-27,17.5c-3.8,13.5,9.5,19.9,21.1,18.7c6.9-0.7,13.3-3.6,19.2-7.1
			C69.8,103.3,75,99.3,76,93c2.3-13.5-15.4-17.8-25.3-15.7c-3.1,0.7-1.8,5.5,1.3,4.8c8.6-1.8,26.4,4.2,16.3,15.3
			c-5.6,6.1-16.4,10.7-24.5,11.2c-4.2,0.2-10.2-0.4-13.2-3.8c-2.8-3.2-2.1-8.3-0.1-11.7c3.8-6.5,13.9-10.1,20.9-10.8
			C54.5,81.9,54.5,76.9,51.3,77.2L51.3,77.2z"/>
	</g>
</g>
<g>
	<g>
		<path class="st1" d="M56.8,93.7c-1.8-3.3-5.2-5.5-9.1-5.4c-1.9,0.1-3.5,0.7-5.1,1.7c-1.9,1.1-5.3,4.9-7.6,2.9
			c-1.6-1.3-4.3-0.5-4.3,1.8c0.2,7.1,4,12.1,11.3,12.5c6.7,0.3,13.5-3.1,14.8-10.2c0.6-3.1-4.2-4.5-4.8-1.3
			c-0.8,4.3-4.5,6.4-8.6,6.5c-4.9,0.1-7.6-2.5-7.7-7.5c-1.4,0.6-2.8,1.2-4.3,1.8c2.5,2.2,5.5,2.6,8.6,1.2c4.1-1.8,9-7.7,12.5-1.4
			C54.1,99.1,58.4,96.5,56.8,93.7L56.8,93.7z"/>
	</g>
</g>
<g>
	<g>
		<path class="st1" d="M57.9,95.1c0-1.1,0.3-2.2,1.4-2.7c1.2-0.5,2.4,0.2,3.5,0.4c2.7,0.3,4.6-1.5,4.8-4.1c-1.1,0.8-2.1,1.6-3.2,2.4
			c-0.7-0.5-0.9-0.4-0.6,0.3c0,0.4,0,0.8-0.1,1.1c-0.2,0.8-0.7,1.4-1.4,1.8c-1.6,1-3.4,0.5-4.9-0.5c-2.7-1.7-5.2,2.6-2.5,4.3
			c3.8,2.5,9,2.3,12.1-1.3c2.3-2.8,3.1-9.1-1.2-10.5c-1.6-0.5-3.1,0.9-3.2,2.4c0.5-0.8,0.4-1.2-0.4-1.2c-0.2,0-0.4-0.1-0.6-0.1
			c-0.6-0.1-1.2-0.1-1.8-0.1c-1.3,0.1-2.6,0.6-3.7,1.3c-2.1,1.5-3.3,4-3.1,6.6C53,98.3,58,98.3,57.9,95.1L57.9,95.1z"/>
	</g>
</g>
<g>
	<g>
		<path class="st1" d="M48.1,76.2c-3-3.5-7.9-5-12-2.6c-4.7,2.8-3.7,8.7-6.8,12.6c-2,2.5,1.6,6.1,3.5,3.5c2-2.6,3.2-5.2,4-8.4
			c1-4.4,4.8-5.1,7.8-1.7C46.6,82.2,50.1,78.7,48.1,76.2L48.1,76.2z"/>
	</g>
</g>
<g>
	<g>
		<path class="st1" d="M48.6,79.5c1.6-4.5,7.4-6.2,10.7-2.8c2,2,3.2,4.3,5.8,5.8c2.8,1.6,5.3-2.7,2.5-4.3c-4.8-2.9-5.9-8.8-12.6-8.5
			c-5,0.2-9.6,3.9-11.3,8.5C42.7,81.2,47.6,82.5,48.6,79.5L48.6,79.5z"/>
	</g>
</g>
<g>
	<g>
		<path class="st1" d="M44.3,114c1.9,2.4,3.7,4.8,5.6,7.2c0.7,0.9,2.1,0.9,3,0.4c1.8-0.9,2.7-3.1,3.5-4.8c1.1-2.1,2-4.2,2.9-6.4
			c1.2-3-3.6-4.3-4.8-1.3c-0.6,1.5-1.3,3-2.1,4.5c-0.4,0.8-1.2,3.2-2.1,3.7c1,0.1,2,0.3,3,0.4c-1.9-2.4-3.7-4.8-5.6-7.2
			C45.8,107.9,42.3,111.5,44.3,114L44.3,114z"/>
	</g>
</g>
<g>
	<g>
		<path class="st1" d="M56.5,112c3.5,0.8,6.9,1.8,10.3,3c1.3,0.5,2.7-0.5,3.1-1.7c0.5-1.7-0.1-3.2-0.5-4.8c-0.5-1.8-1-3.6-1.4-5.5
			c-0.8-3.1-5.6-1.8-4.8,1.3c0.4,1.3,0.7,2.7,1.1,4c0.2,0.9,1.1,2.7,0.9,3.6c1-0.6,2.1-1.2,3.1-1.7c-3.4-1.2-6.8-2.2-10.3-3
			C54.7,106.6,53.4,111.4,56.5,112L56.5,112z"/>
	</g>
</g>
<g>
	<g>
		<path class="st1" d="M43.8,88.9c2.4,0,2.4-3.8,0-3.8C41.4,85.1,41.4,88.9,43.8,88.9L43.8,88.9z"/>
	</g>
</g>
<g>
	<g>
		<path class="st1" d="M55.8,87c2.4,0,2.4-3.8,0-3.8C53.4,83.2,53.4,87,55.8,87L55.8,87z"/>
	</g>
</g>
<g>
	<g>
		<path class="st1" d="M27.5,142c2.8-4.6,8.1-10.9,13.8-12c4.5-0.9,2.9,5.1,3.2,8c0.1,1.6,0.5,3.1,1.6,4.2c3.2,3.2,7.5-0.4,10-2.7
			c4.9-4.5,9.7-13.1,17.6-10.3c3,1.1,4.3-3.8,1.3-4.8c-6.3-2.2-11.9,0.9-16.4,5.3c-1.2,1.2-6.8,8.9-8.6,8.4c-1-0.3-0.6-8.5-1.2-10
			c-2-5.5-7.4-3.6-11.4-1.7c-6,2.9-10.7,7.5-14.1,13.2C21.5,142.2,25.8,144.8,27.5,142L27.5,142z"/>
	</g>
</g>
</svg>
