<?xml version="1.0" encoding="utf-8"?>
<!-- Generator: Adobe Illustrator 21.1.0, SVG Export Plug-In . SVG Version: 6.00 Build 0)  -->
<svg version="1.1" id="Layer_1" xmlns="http://www.w3.org/2000/svg" xmlns:xlink="http://www.w3.org/1999/xlink" x="0px" y="0px"
	 viewBox="0 0 100 100" style="enable-background:new 0 0 100 100;" xml:space="preserve">
<style type="text/css">
	.st0{fill:#444445;}
</style>
<g>
	<g>
		<path class="st0" d="M57.7,37.8c7.4,2,15.4,5.5,23.3,4.9c1.4-0.1,8.8-1.9,8.5,0.2c-0.2,1.2-8.6,4.3-9.2,4.5
			c-15.8,5-31.8-5.2-47.8-3.9c-5.9,0.5-11.7,2.1-16.4,5.9c-1.2,1-2.2,2.3-3.4,3.3c-0.8,1.3-2,2-3.6,2.1c0-0.3-0.1-0.7-0.1-1
			c-0.8-1.7,0.9-5.7,1.6-7.2C18.8,30.8,43.7,34.2,57.7,37.8c3.1,0.8,4.5-4,1.3-4.8c-14.3-3.6-33.8-6-46.3,3.8
			c-4.4,3.5-7.7,8.4-8.4,14c-0.5,3.6-0.1,8.7,4.3,9.4c2,0.3,4.1-0.6,5.7-1.8c3.7-2.8,5.8-6.3,10.4-8.1c8.5-3.3,17.8-1.6,26.3,0.3
			c8.4,1.8,16.9,3.9,25.5,2.7c3.3-0.4,6.5-1.3,9.5-2.9c2.4-1.2,5.9-2.5,7.6-4.6c3.8-4.4-1.1-8.8-5.6-9c-4.5-0.3-8.5,1.2-13.2,0.4
			c-5.4-1-10.6-2.8-15.9-4.3C55.9,32.1,54.6,36.9,57.7,37.8z"/>
	</g>
</g>
<g>
	<g>
		<path class="st0" d="M9,58.3c2,6.6,8.9,9.2,15.2,10.2c9.7,1.6,19.7,2.1,29.6,1.6c8-0.4,16.7-1,24-4.5c5.4-2.6,10.8-8.9,8.2-15.1
			c-1.2-2.9-6.1-1.6-4.8,1.3c2.8,6.7-7.2,10.3-12,11.4c-6.1,1.4-12.6,1.8-18.9,2c-6.1,0.2-12.2-0.2-18.3-0.8
			c-5.6-0.6-16.1-0.8-18.1-7.5C12.9,53.9,8.1,55.2,9,58.3L9,58.3z"/>
	</g>
</g>
<g>
	<g>
		<path class="st0" d="M21.3,33.3c-1.6,1.4-3.2,2.8-4.9,4c-1.5,1.1-1.7,3.3,0,4.3c3.6,2,7.2,3.9,11,5.7c2.9,1.4,5.4-2.9,2.5-4.3
			c-3.7-1.8-7.4-3.7-11-5.7c0,1.4,0,2.9,0,4.3c2.1-1.5,4-3.1,5.9-4.8C27.2,34.6,23.7,31.1,21.3,33.3L21.3,33.3z"/>
	</g>
</g>
<g>
	<g>
		<path class="st0" d="M40.4,30.8c-2.4,1.4-4.9,2.9-7.3,4.3c-1.7,1-1.5,3.3,0,4.3c4.6,3.1,9.2,6.3,13.9,9.4c2.7,1.8,5.2-2.5,2.5-4.3
			c-4.6-3.1-9.2-6.3-13.9-9.4c0,1.4,0,2.9,0,4.3c2.4-1.4,4.9-2.9,7.3-4.3C45.7,33.5,43.2,29.2,40.4,30.8L40.4,30.8z"/>
	</g>
</g>
<g>
	<g>
		<path class="st0" d="M58.2,34.4c-1.5,0.2-2.9,0.6-4.4,1.2c-1.7,0.7-2.6,2.8-1.1,4.2c4.5,4.3,9.1,8.6,13.7,12.9
			c2.3,2.2,5.9-1.3,3.5-3.5c-4.6-4.3-9.1-8.6-13.7-12.9c-0.4,1.4-0.7,2.8-1.1,4.2c1.4-0.6,2.8-1,4.4-1.2
			C62.7,38.7,61.3,33.9,58.2,34.4L58.2,34.4z"/>
	</g>
</g>
<g>
	<g>
		<path class="st0" d="M75.8,38.2c-1.8,0.4-3.5,1.1-5,2.2c-1.6,1.2-1.6,3.1,0,4.3c2.6,1.9,5.1,3.8,7.7,5.6c1.1,0.8,2.8,0.2,3.4-0.9
			c0.7-1.3,0.2-2.6-0.9-3.4c-2.6-1.9-5.1-3.8-7.7-5.6c0,1.4,0,2.9,0,4.3c1.2-0.9,2.4-1.4,3.9-1.7C80.3,42.4,79,37.6,75.8,38.2
			L75.8,38.2z"/>
	</g>
</g>
</svg>
