<?xml version="1.0" encoding="utf-8"?>
<!-- Generator: Adobe Illustrator 21.1.0, SVG Export Plug-In . SVG Version: 6.00 Build 0)  -->
<svg version="1.1" id="Layer_1" xmlns="http://www.w3.org/2000/svg" xmlns:xlink="http://www.w3.org/1999/xlink" x="0px" y="0px"
	 viewBox="0 0 100 100" style="enable-background:new 0 0 100 100;" xml:space="preserve">
<style type="text/css">
	.st0{fill:#444445;}
</style>
<g>
	<g>
		<path class="st0" d="M10.3,67.8c5-16.7,23.2-27.1,40.1-26.8c17,0.3,34.6,11.3,39.1,28.1c0.8,3.1,5.7,1.8,4.8-1.3
			c-5.1-19-24.7-31.5-43.9-31.8C31.2,35.6,11.1,47.7,5.5,66.5C4.5,69.5,9.3,70.9,10.3,67.8L10.3,67.8z"/>
	</g>
</g>
<g>
	<g>
		<path class="st0" d="M5.2,67.4c0,1.1,0,2.2,0,3.2c0,1.3,1.1,2.6,2.5,2.5c1.4-0.1,2.5-1.1,2.5-2.5c0-1.1,0-2.2,0-3.2
			c0-1.3-1.1-2.6-2.5-2.5C6.3,65,5.2,66,5.2,67.4L5.2,67.4z"/>
	</g>
</g>
<g>
	<g>
		<path class="st0" d="M8,73.9c28,0,55.9,0,83.9,0c3.2,0,3.2-5,0-5c-28,0-55.9,0-83.9,0C4.8,68.9,4.8,73.9,8,73.9L8,73.9z"/>
	</g>
</g>
<g>
	<g>
		<path class="st0" d="M89.5,68.6c0,0.8,0,1.7,0,2.5c0,1.3,1.1,2.6,2.5,2.5c1.4-0.1,2.5-1.1,2.5-2.5c0-0.8,0-1.7,0-2.5
			c0-1.3-1.1-2.6-2.5-2.5C90.6,66.1,89.5,67.2,89.5,68.6L89.5,68.6z"/>
	</g>
</g>
<g>
	<g>
		<path class="st0" d="M8.1,64.9c-2.2-0.4-3.1-2.3-2.4-4.2c0.4-1.1,1.7-2,2.4-3c1.2-1.6,2-3,2.7-4.9c1-2.7,1.7-5.1,4.2-6.8
			c2.1-1.4,4.7-1.8,6.8-3.2c1.5-1.1,2.7-2.6,3.9-4c2.5-2.9,4.3-3.5,8.3-3.8c2.5-0.2,4.7-0.6,7.1-1.5c2.6-1,5.8-3.2,8.7-2.4
			c3.1,0.9,4.4-4,1.3-4.8c-3.7-1-6.4,0.4-9.9,1.8c-2.5,1-4.5,1.8-7.2,2c-2,0.1-4-0.1-5.9,0.6c-2.6,0.9-4.3,2.8-6,4.8
			c-1.7,2-2.8,3.4-5.3,4.5c-1.6,0.7-3.2,1.1-4.7,2.1c-2.4,1.6-4.2,4-5.2,6.6c-0.7,1.8-0.9,3.5-2,5.2c-1,1.6-2.4,2.8-3.4,4.3
			c-4,5.7-1.5,10.7,5.2,11.8C9.9,70.2,11.2,65.4,8.1,64.9L8.1,64.9z"/>
	</g>
</g>
<g>
	<g>
		<path class="st0" d="M93.2,70.1c5.9-1,9.1-5.2,6-10.7c-0.8-1.4-1.9-2.5-2.9-3.7c-1.8-2.2-2.2-4.3-3.3-6.8c-1.1-2.6-2.7-4.8-5-6.4
			c-3.2-2.2-6.7-2.7-9.4-5.8c-1.9-2.2-3.6-4.6-6.5-5.7c-3.8-1.4-8-0.5-11.9-2c-3.8-1.4-7.3-3-11.4-3.3c-3.2-0.2-3.2,4.8,0,5
			c5.5,0.4,10,3.9,15.4,4.5c3.8,0.4,6.5,0,9.3,2.9c1.5,1.6,2.7,3.5,4.5,4.8c1.9,1.4,4.1,1.8,6.2,2.9c2.7,1.4,3.8,3.9,4.8,6.6
			c0.7,2,1.4,3.7,2.7,5.4c1.7,2.2,6,6.5,0.2,7.4C88.7,65.8,90.1,70.6,93.2,70.1L93.2,70.1z"/>
	</g>
</g>
<g>
	<g>
		<path class="st0" d="M19.6,63.6c0.6,0.7,1.3,1.5,1.9,2.2c0.9,1,2.7,0.9,3.5,0c1-1.1,0.9-2.5,0-3.5c-0.6-0.7-1.3-1.5-1.9-2.2
			c-0.9-1-2.7-0.9-3.5,0C18.7,61.1,18.7,62.5,19.6,63.6L19.6,63.6z"/>
	</g>
</g>
<g>
	<g>
		<path class="st0" d="M35.4,53.9c0.1-0.5,0.2-1.1,0.3-1.6c0.2-1.3-0.4-2.8-1.7-3.1c-1.2-0.3-2.8,0.4-3.1,1.7
			c-0.1,0.5-0.2,1.1-0.3,1.6c-0.2,1.3,0.4,2.8,1.7,3.1C33.6,56,35.2,55.3,35.4,53.9L35.4,53.9z"/>
	</g>
</g>
<g>
	<g>
		<path class="st0" d="M33.7,64.1c0.4,0.6,0.7,1.2,1.1,1.8c0.4,0.5,0.8,1,1.5,1.1c0.6,0.2,1.4,0.1,1.9-0.3c1.1-0.7,1.7-2.3,0.9-3.4
			c-0.4-0.6-0.8-1.2-1.1-1.8c-0.7-1.1-2.3-1.6-3.4-0.9C33.5,61.4,33,62.9,33.7,64.1L33.7,64.1z"/>
	</g>
</g>
<g>
	<g>
		<path class="st0" d="M76.2,59.7c-0.6,0.7-1.3,1.5-1.9,2.2c-0.9,1-1,2.6,0,3.5c0.9,0.9,2.6,1.1,3.5,0c0.6-0.7,1.3-1.5,1.9-2.2
			c0.9-1,1-2.6,0-3.5C78.8,58.8,77.1,58.6,76.2,59.7L76.2,59.7z"/>
	</g>
</g>
<g>
	<g>
		<path class="st0" d="M68.8,52.3c-0.1-0.5-0.2-1.1-0.3-1.6c-0.2-1.3-1.9-2.1-3.1-1.7c-1.4,0.4-2,1.7-1.7,3.1
			c0.1,0.5,0.2,1.1,0.3,1.6c0.2,1.3,1.9,2.1,3.1,1.7C68.4,54.9,69,53.7,68.8,52.3L68.8,52.3z"/>
	</g>
</g>
<g>
	<g>
		<path class="st0" d="M61.4,61.2c-0.4,0.6-0.7,1.2-1.1,1.8c-0.8,1.1-0.2,2.8,0.9,3.4c1.3,0.7,2.6,0.2,3.4-0.9
			c0.4-0.6,0.8-1.2,1.1-1.8c0.7-1.1,0.3-2.8-0.9-3.4C63.6,59.7,62.1,60,61.4,61.2L61.4,61.2z"/>
	</g>
</g>
<g>
	<g>
		<path class="st0" d="M52.3,51.3c0-0.5,0-1.1,0-1.6c0-1.3-1.1-2.6-2.5-2.5c-1.4,0.1-2.5,1.1-2.5,2.5c0,0.5,0,1.1,0,1.6
			c0,1.3,1.1,2.6,2.5,2.5C51.2,53.8,52.3,52.7,52.3,51.3L52.3,51.3z"/>
	</g>
</g>
<g>
	<g>
		<path class="st0" d="M47.2,61.5c0,0.6,0,1.3,0,1.9c0,1.3,1.1,2.6,2.5,2.5c1.4-0.1,2.5-1.1,2.5-2.5c0-0.6,0-1.3,0-1.9
			c0-1.3-1.1-2.6-2.5-2.5C48.3,59.1,47.2,60.1,47.2,61.5L47.2,61.5z"/>
	</g>
</g>
</svg>
